<?xml version="1.0" encoding="iso-8859-1"?>
<!-- Uploaded to: SVG Repo, www.svgrepo.com, Generator: SVG Repo Mixer Tools -->
<svg height="800px" width="800px" version="1.1" id="Layer_1" xmlns="http://www.w3.org/2000/svg" xmlns:xlink="http://www.w3.org/1999/xlink" 
	 viewBox="0 0 503.607 503.607" xml:space="preserve">
<g transform="translate(1 1)">
	<path style="fill:#E2E3E5;" d="M267.59,469.033c-5.036,0-8.393-3.357-8.393-8.393V267.59c0-5.036,3.357-8.393,8.393-8.393
		s8.393,3.357,8.393,8.393v193.049C275.984,464.836,272.626,469.033,267.59,469.033z"/>
	<path style="fill:#FFFFFF;" d="M133.295,91.328c-36.931,0-67.148,30.216-67.148,67.148c0,1.679,0,2.518,0,4.197s0,3.357,0,4.197
		c-33.574,15.948-58.754,54.557-58.754,94.007c0,54.557,44.485,99.043,99.043,99.043h43.646l20.144-257.679
		C160.154,95.525,146.725,91.328,133.295,91.328"/>
	<path style="fill:#CCCCCC;" d="M417.833,175.262C416.993,102.239,357.4,40.967,284.377,40.967l83.095,318.951h33.574
		c51.2,0,92.328-41.967,92.328-92.328C493.374,222.266,460.639,183.656,417.833,175.262"/>
	<path style="fill:#E2E3E5;" d="M393.492,175.262c-0.839-73.023-60.433-134.295-133.456-134.295
		c-47.003,0-52.039,14.269-76.38,50.361c-10.911-6.715-11.751,0-25.18,0c-36.931,0-67.148,30.216-67.148,67.148
		c0,1.679,0,2.518,0,4.197s0,3.357,0,4.197c-33.574,15.948-58.754,54.557-58.754,94.007c0,54.557,44.485,99.043,99.043,99.043
		h43.646h167.869h33.574c51.2,0,92.328-41.967,92.328-92.328C469.033,222.266,436.298,183.656,393.492,175.262"/>
	<g>
		<path style="fill:#B6B6B6;" d="M376.705,183.656c-4.197,0-7.554-3.357-8.393-6.715c-0.839-4.197,2.518-9.233,6.715-9.233
			c21.823-3.357,43.646,0,44.485,0c4.197,0.839,7.554,5.036,6.715,9.233c-0.839,4.197-5.036,7.554-9.233,6.715
			c0,0-20.144-2.518-39.449,0C377.544,183.656,377.544,183.656,376.705,183.656z"/>
		<path style="fill:#B6B6B6;" d="M200.443,166.869c-5.036,0-8.393-3.357-8.393-8.393c0-32.734-26.02-58.754-58.754-58.754
			s-58.754,26.02-58.754,58.754c0,5.036-3.357,8.393-8.393,8.393s-8.393-3.357-8.393-8.393c0-41.967,33.574-75.541,75.541-75.541
			s75.541,33.574,75.541,75.541C208.836,163.511,205.479,166.869,200.443,166.869z"/>
		<path style="fill:#B6B6B6;" d="M401.885,368.311h-33.574c-5.036,0-8.393-3.357-8.393-8.393c0-5.036,3.357-8.393,8.393-8.393
			h33.574c46.164,0,83.934-37.77,83.934-83.934c0-40.289-29.377-76.38-68.826-83.934c-4.197-0.839-6.715-4.197-6.715-8.393
			c-0.839-69.666-57.075-125.902-125.062-125.902c-41.967,0-83.934,22.662-107.436,57.915c-2.518,4.197-7.554,5.036-11.751,2.518
			c-10.072-6.715-20.984-10.072-32.734-10.072c-32.734,0-58.754,26.02-58.754,58.754c0,0.839,0,1.679,0,2.518v0.839v0.839
			c0,1.679,0,3.357,0,4.197c0,3.357-1.679,5.875-5.036,7.554c-31.056,15.108-53.718,51.2-53.718,86.452
			c0,49.521,41.128,90.649,91.489,90.649h42.807c5.036,0,8.393,3.357,8.393,8.393c0,5.036-3.357,8.393-8.393,8.393h-43.646
			C47.682,368.311-1,319.629-1,260.875c0-40.289,24.341-79.738,58.754-99.043c0-0.839,0-2.518,0-3.357
			c0-41.967,33.574-75.541,75.541-75.541c12.59,0,24.341,2.518,34.413,8.393c27.698-36.092,71.344-58.754,116.669-58.754
			c76.38,0,138.492,60.433,142.689,135.974c43.646,11.751,75.541,52.879,75.541,99.043
			C502.607,322.987,457.282,368.311,401.885,368.311z"/>
		<path style="fill:#B6B6B6;" d="M259.197,460.639c-5.036,0-8.393-3.357-8.393-8.393V259.197c0-5.036,3.357-8.393,8.393-8.393
			s8.393,3.357,8.393,8.393v193.049C267.59,457.282,264.233,460.639,259.197,460.639z"/>
		<path style="fill:#B6B6B6;" d="M326.344,334.738c-2.518,0-4.197-0.839-5.875-2.518l-67.148-67.148
			c-3.357-3.357-3.357-8.393,0-11.751c3.357-3.357,8.393-3.357,11.751,0l67.148,67.148c3.357,3.357,3.357,8.393,0,11.751
			C330.541,333.898,328.862,334.738,326.344,334.738z"/>
		<path style="fill:#B6B6B6;" d="M192.049,334.738c-2.518,0-4.197-0.839-5.875-2.518c-3.357-3.357-3.357-8.393,0-11.751
			l67.148-67.148c3.357-3.357,8.393-3.357,11.751,0c3.357,3.357,3.357,8.393,0,11.751l-67.148,67.148
			C196.246,333.898,194.567,334.738,192.049,334.738z"/>
	</g>
</g>
</svg>